<svg width="65" height="58" viewBox="0 0 65 58" fill="none" xmlns="http://www.w3.org/2000/svg">
<path d="M2.03125 1.20312V47.9219C2.03125 51.8574 5.20508 55.0312 9.14062 55.0312H63.9844C64.4922 55.0312 65 55.5391 65 56.0469C65 56.6816 64.4922 57.0625 63.9844 57.0625H9.14062C4.0625 57.0625 0 53 0 47.9219V1.20312C0 0.695312 0.380859 0.1875 1.01562 0.1875C1.52344 0.1875 2.03125 0.695312 2.03125 1.20312ZM18.2812 14.4062C18.2812 15.5488 19.1699 16.4375 20.3125 16.4375H32.5C33.5156 16.4375 34.5312 15.5488 34.5312 14.4062C34.5312 13.3906 33.5156 12.375 32.5 12.375H20.3125C19.1699 12.375 18.2812 13.3906 18.2812 14.4062ZM26.4062 26.5938C26.4062 27.7363 27.2949 28.625 28.4375 28.625H44.6875C45.7031 28.625 46.7188 27.7363 46.7188 26.5938C46.7188 25.5781 45.7031 24.5625 44.6875 24.5625H28.4375C27.2949 24.5625 26.4062 25.5781 26.4062 26.5938ZM42.6562 38.7812C42.6562 39.9238 43.5449 40.8125 44.6875 40.8125H56.875C57.8906 40.8125 58.9062 39.9238 58.9062 38.7812C58.9062 37.7656 57.8906 36.75 56.875 36.75H44.6875C43.5449 36.75 42.6562 37.7656 42.6562 38.7812ZM20.3125 10.3438H32.5C34.6582 10.3438 36.5625 12.248 36.5625 14.4062C36.5625 16.6914 34.6582 18.4688 32.5 18.4688H20.3125C18.0273 18.4688 16.25 16.6914 16.25 14.4062C16.25 12.248 18.0273 10.3438 20.3125 10.3438ZM28.4375 22.5312H44.6875C46.8457 22.5312 48.75 24.4355 48.75 26.5938C48.75 28.8789 46.8457 30.6562 44.6875 30.6562H28.4375C26.1523 30.6562 24.375 28.8789 24.375 26.5938C24.375 24.4355 26.1523 22.5312 28.4375 22.5312ZM44.6875 34.7188H56.875C59.0332 34.7188 60.9375 36.623 60.9375 38.7812C60.9375 41.0664 59.0332 42.8438 56.875 42.8438H44.6875C42.4023 42.8438 40.625 41.0664 40.625 38.7812C40.625 36.623 42.4023 34.7188 44.6875 34.7188Z" fill="white"/>
</svg>
