<svg width="30" height="30" viewBox="0 0 30 30" fill="none" xmlns="http://www.w3.org/2000/svg">
<circle cx="15" cy="15" r="15" fill="#2699F6"/>
<path d="M11.7344 21H9.19141V12.8242H11.7344V21ZM10.4492 11.7305C9.65625 11.7305 9 11.0469 9 10.2266C9 9.70703 9.27344 9.21484 9.71094 8.96875C10.1758 8.69531 10.75 8.69531 11.1875 8.96875C11.6523 9.21484 11.9258 9.70703 11.9258 10.2266C11.9258 11.0469 11.2695 11.7305 10.4492 11.7305ZM21.2227 21H18.707V17.0352C18.707 16.0781 18.6797 14.875 17.3672 14.875C16.0547 14.875 15.8633 15.8867 15.8633 16.9531V21H13.3203V12.8242H15.7539V13.9453H15.7812C16.1367 13.3164 16.957 12.6328 18.1875 12.6328C20.7578 12.6328 21.25 14.3281 21.25 16.5156V21H21.2227Z" fill="#054C7E"/>
</svg>
