<svg width="63" height="64" viewBox="0 0 63 64" fill="none" xmlns="http://www.w3.org/2000/svg">
<path d="M42.2051 50.0938H55.125C58.3242 50.0938 61.0312 47.5098 61.0312 44.1875V8.75C61.0312 5.55078 58.3242 2.84375 55.125 2.84375H7.875C4.55273 2.84375 1.96875 5.55078 1.96875 8.75V44.1875C1.96875 47.5098 4.55273 50.0938 7.875 50.0938H20.6719C21.2871 50.0938 21.7793 50.4629 22.1484 50.832L31.5 61.9062L40.7285 50.832C41.0977 50.4629 41.5898 50.0938 42.2051 50.0938ZM20.6719 52.0625H7.875C3.44531 52.0625 0 48.6172 0 44.1875V8.75C0 4.44336 3.44531 0.875 7.875 0.875H55.125C59.4316 0.875 63 4.44336 63 8.75V44.1875C63 48.6172 59.4316 52.0625 55.125 52.0625H42.2051L32.9766 63.2598C32.6074 63.6289 31.9922 63.875 31.5 63.875C30.8848 63.875 30.2695 63.6289 29.9004 63.2598L20.6719 52.0625Z" fill="#fff"/>
</svg>
