<svg width="75" height="58" viewBox="0 0 75 58" fill="none" xmlns="http://www.w3.org/2000/svg">
<path d="M14.6562 2.21875C7.92773 2.21875 2.46875 7.67773 2.46875 14.4062V28.625H26.8438V14.4062C26.8438 7.67773 21.3848 2.21875 14.6562 2.21875ZM2.46875 42.8438C2.46875 49.5723 7.92773 55.0312 14.6562 55.0312C21.3848 55.0312 26.8438 49.5723 26.8438 42.8438V30.6562H2.46875V42.8438ZM0.4375 14.4062C0.4375 6.66211 6.78516 0.1875 14.6562 0.1875C22.4004 0.1875 28.875 6.66211 28.875 14.4062V42.8438C28.875 50.7148 22.4004 57.0625 14.6562 57.0625C6.78516 57.0625 0.4375 50.7148 0.4375 42.8438V14.4062ZM53.25 55.0312C57.8203 55.0312 62.1367 53.3809 65.4375 50.4609L39.5391 24.5625C36.6191 27.8633 34.9688 32.1797 34.9688 36.75C34.9688 46.9062 43.0938 55.0312 53.25 55.0312ZM41.0625 23.166L66.834 48.9375C69.7539 45.7637 71.5312 41.4473 71.5312 36.75C71.5312 26.7207 63.2793 18.4688 53.25 18.4688C48.5527 18.4688 44.2363 20.2461 41.0625 23.166ZM53.25 57.0625C45.8867 57.0625 39.2852 53.2539 35.6035 46.9062C31.9219 40.6855 31.9219 32.9414 35.6035 26.5938C39.2852 20.373 45.8867 16.4375 53.25 16.4375C60.4863 16.4375 67.0879 20.373 70.7695 26.5938C74.4512 32.9414 74.4512 40.6855 70.7695 46.9062C67.0879 53.2539 60.4863 57.0625 53.25 57.0625Z" fill="#fff"/>
</svg>
