<svg width="74" height="66" viewBox="0 0 74 66" fill="none" xmlns="http://www.w3.org/2000/svg">
<path d="M37.6348 0.378906L73.1816 31.8633C73.5625 32.2441 73.5625 32.8789 73.3086 33.3867C72.9277 33.7676 72.293 33.7676 71.7852 33.3867L65.4375 27.8008V57C65.4375 61.5703 61.7559 65.125 57.3125 65.125H16.6875C12.1172 65.125 8.5625 61.5703 8.5625 57V27.8008L2.08789 33.3867C1.70703 33.7676 0.945312 33.7676 0.691406 33.3867C0.310547 32.8789 0.310547 32.2441 0.691406 31.8633L36.2383 0.378906C36.6191 0.125 37.2539 0.125 37.6348 0.378906ZM10.5938 57C10.5938 60.4277 13.2598 63.0938 16.6875 63.0938H57.3125C60.6133 63.0938 63.4062 60.4277 63.4062 57V25.8965L37 2.53711L10.5938 25.8965V57ZM33.9531 25.5156V32.625C33.9531 33.2598 33.4453 33.6406 32.9375 33.6406H25.8281C25.1934 33.6406 24.8125 34.1484 24.8125 34.6562V38.7188C24.8125 39.3535 25.1934 39.7344 25.8281 39.7344H32.9375C33.4453 39.7344 33.9531 40.2422 33.9531 40.75V47.8594C33.9531 48.4941 34.334 48.875 34.9688 48.875H39.0312C39.5391 48.875 40.0469 48.4941 40.0469 47.8594V40.75C40.0469 40.2422 40.4277 39.7344 41.0625 39.7344H48.1719C48.6797 39.7344 49.1875 39.3535 49.1875 38.7188V34.6562C49.1875 34.1484 48.6797 33.6406 48.1719 33.6406H41.0625C40.4277 33.6406 40.0469 33.2598 40.0469 32.625V25.5156C40.0469 25.0078 39.5391 24.5 39.0312 24.5H34.9688C34.334 24.5 33.9531 25.0078 33.9531 25.5156ZM34.9688 22.4688H39.0312C40.6816 22.4688 42.0781 23.8652 42.0781 25.5156V31.6094H48.1719C49.8223 31.6094 51.2188 33.0059 51.2188 34.6562V38.7188C51.2188 40.4961 49.8223 41.7656 48.1719 41.7656H42.0781V47.8594C42.0781 49.6367 40.6816 50.9062 39.0312 50.9062H34.9688C33.1914 50.9062 31.9219 49.6367 31.9219 47.8594V41.7656H25.8281C24.0508 41.7656 22.7812 40.4961 22.7812 38.7188V34.6562C22.7812 33.0059 24.0508 31.6094 25.8281 31.6094H31.9219V25.5156C31.9219 23.8652 33.1914 22.4688 34.9688 22.4688Z" fill="#fff"/>
</svg>
